<!-- Generated by IcoMoon.io -->
<svg version="1.1" xmlns="http://www.w3.org/2000/svg" width="1024" height="1024" viewBox="0 0 1024 1024">
<title></title>
<g id="icomoon-ignore">
</g>
<path fill="#6fda44" d="M791.936 561.408c-47.019 0-91.093-19.925-131.157-52.352l9.728-45.909 0.341-1.792c8.832-48.768 36.224-130.56 121.131-130.56 63.659 0 115.328 51.712 115.328 115.328-0.043 63.531-51.712 115.285-115.371 115.285zM791.936 214.101c-108.331 0-192.427 70.357-226.56 186.283-52.053-78.251-91.648-172.203-114.645-251.392h-116.736v303.445c-0.085 59.989-48.683 108.629-108.672 108.715-59.947-0.085-108.501-48.768-108.587-108.715v-303.445h-116.736v303.445c0 124.331 101.12 226.261 225.323 226.261 124.288 0 225.408-101.931 225.408-226.261v-50.773c22.571 47.232 50.432 95.104 84.224 137.429l-71.381 335.915h119.339l51.755-243.627c45.355 28.971 97.493 47.317 157.269 47.317 128 0 232.064-104.619 232.064-232.533 0-128-104.064-232.064-232.064-232.064z"></path>
</svg>
